# xmcd
#
# Track frame offsets:
# 150
# 19567
# 33357
# 51359
# 64824
# 79608
# 93573
# 104871
# 119690
# 132938
# 136566
# 152176
# 165929
# 182090
# 193633
# 202602
#
# Disc length: 2846 seconds
#
#
# Revision: 0
# Processed by: cddbd v1.5.2PL0 Copyright (c) Steve Scherf et al.
# Submitted via: FreeRIP 2.951 
#
DISCID=d20b1c10
DTITLE=AG - Get Dirty Radio
DYEAR=1900
DGENRE=Hip-Hop
TTITLE0=Frozen(Madlib)
TTITLE1=If I Wanna
TTITLE2=Take A Ride(Madlib Aloe Blacc)
TTITLE3=Giant By Design
TTITLE4=Yeah Nigga
TTITLE5=Say Yeah
TTITLE6=Triumph
TTITLE7=Love(Oh No)
TTITLE8=Pray
TTITLE9=Real Right Now
TTITLE10=We Dont Care)Lord Finesse)
TTITLE11=Gigantic(Oh No)
TTITLE12=Hip Hop Quotable(Dilla AloeBlacc)
TTITLE13=The Struggle
TTITLE14=Outro
TTITLE15=Who Dat
EXTD=
EXTT0=
EXTT1=
EXTT2=
EXTT3=
EXTT4=
EXTT5=
EXTT6=
EXTT7=
EXTT8=
EXTT9=
EXTT10=
EXTT11=
EXTT12=
EXTT13=
EXTT14=
EXTT15=
PLAYORDER=
